# xmcd CD database file
#
# Track frame offsets:
#	150
#	21157
#	34812
#
# Disc length: 755 seconds
#
# Revision: 0
# Processed by: cddbd v1.5.1PL0 Copyright (c) Steve Scherf et al.
# Submitted via: CDex 1.51
#
DISCID=1c02f103
DTITLE=ホフディラン - GET READY!!
DYEAR=2001
DGENRE=Rock
TTITLE0=GET READY！！
TTITLE1=甘い蜜
TTITLE2=TWO TURNTABLES
EXTD=YEAR: 2001
EXTT0=
EXTT1=
EXTT2=
PLAYORDER=
